<svg width="190" height="190" viewBox="0 0 190 190" fill="none" xmlns="http://www.w3.org/2000/svg">
<path fill-rule="evenodd" clip-rule="evenodd" d="M27.8248 27.8248C18.3025 37.3472 14.8635 50.6493 17.5079 62.9017C6.97425 69.6956 0 81.5334 0 95C-1.65448e-06 108.466 6.97425 120.304 17.5079 127.099C14.8635 139.351 18.3025 152.653 27.8248 162.175C37.3473 171.697 50.6493 175.136 62.9017 172.492C69.6957 183.026 81.5334 190 95 190C108.466 190 120.304 183.026 127.099 172.492C139.351 175.136 152.653 171.697 162.175 162.175C171.697 152.653 175.136 139.351 172.492 127.099C183.026 120.304 190 108.466 190 95C190 81.5334 183.026 69.6956 172.492 62.9017C175.136 50.6493 171.697 37.3473 162.175 27.8248C152.653 18.3025 139.351 14.8635 127.099 17.5079C120.304 6.97426 108.466 0 95 0C81.5334 0 69.6956 6.97425 62.9017 17.5078C50.6493 14.8635 37.3473 18.3025 27.8248 27.8248Z" fill="#54340E"/>
</svg>
