<svg width="277" height="60" viewBox="0 0 277 60" fill="none" xmlns="http://www.w3.org/2000/svg">
<path d="M0 14.0732V28.1465H14.0419H28.0838V14.0732V-0.000183403H14.0419H0V14.0732Z" fill="#54340E"/>
<path d="M31.0438 0.151376C30.9574 0.216329 30.8926 6.56016 30.8926 14.2247V28.1465H44.9345H58.9764V14.0732V-0.000183403H45.0857C37.4383 -0.000183403 31.1086 0.0647704 31.0438 0.151376Z" fill="#54340E"/>
<path d="M256.427 9.52649C254.158 10.0245 251.76 11.7133 250.745 13.5753C249.859 15.2208 249.514 16.9096 249.514 19.5294V21.8461L247.418 21.911L245.301 21.976L245.236 24.4009L245.171 26.8475H247.353H249.514V37.1319V47.4162H252.538H255.562V37.1319V26.8475H259.991H264.42V33.3862C264.441 41.2023 264.592 42.6746 265.543 44.6016C266.342 46.1605 267.595 47.1997 269.237 47.6544C270.62 48.0225 273.622 47.9575 275.178 47.5245L276.517 47.1348V44.7098V42.2849L275.286 42.6963C273.298 43.3674 271.743 42.9561 270.965 41.5054C270.62 40.8992 270.576 40.0115 270.512 33.8192L270.447 26.8475H273.471H276.517V24.3576V21.8677H273.493H270.468V18.1654V14.463L269.885 14.6145C269.54 14.6795 268.179 15.0909 266.861 15.5022L264.42 16.26V19.118V21.976L259.969 21.911L255.519 21.8461L255.584 19.3129C255.67 16.5415 255.951 15.7404 257.118 14.8744C257.917 14.2898 259.775 14.1382 261.05 14.5712L262.043 14.9177V12.3412C262.043 10.1544 262 9.76466 261.676 9.6564C261.028 9.39659 257.42 9.33163 256.427 9.52649Z" fill="#54340E"/>
<path d="M121.928 11.6699C120.804 12.3627 120.264 13.3154 120.264 14.6361C120.264 16.7579 121.863 18.1219 124.174 17.9271C126.14 17.7539 127.35 16.4981 127.35 14.6144C127.35 13.3154 126.918 12.5576 125.73 11.7348C124.801 11.1069 122.9 11.0636 121.928 11.6699Z" fill="#54340E"/>
<path d="M76.6904 29.662V47.4161H79.6068H82.5232L82.48 33.7758C82.4368 26.2628 82.48 20.1355 82.5448 20.1355C82.6096 20.1355 85.1156 26.2844 88.14 33.7758L93.6271 47.4377L95.7874 47.3728L97.9477 47.3078L103.284 33.8191C106.222 26.3927 108.684 20.2654 108.749 20.2004C108.814 20.1138 108.879 26.2195 108.879 33.7325V47.4161H111.903H114.928V29.662V11.908H110.758H106.589L101.642 24.076C98.9199 30.7879 96.5003 36.6987 96.2843 37.2183L95.8523 38.1926L93.9728 33.4294C92.9359 30.8312 90.6027 24.9204 88.7881 20.287L85.4828 11.908H81.0758H76.6904V29.662Z" fill="#54340E"/>
<path d="M140.851 21.7595C136.466 22.7555 133.031 25.8949 131.562 30.3118C130.892 32.2604 130.719 36.5257 131.216 38.6259C131.994 41.8952 134.349 45.0563 137.071 46.4853C140.441 48.239 145.474 48.4122 149.211 46.94L150.464 46.442L150.572 43.6706C150.637 42.155 150.659 40.9209 150.637 40.9209C150.616 40.9209 149.968 41.2673 149.19 41.6787C145.582 43.6923 141.542 43.3458 139.188 40.856C137.416 38.9939 136.725 36.3092 137.179 33.1481C137.611 30.1386 139.339 27.8002 141.845 26.8692C144.2 25.9815 147.548 26.3929 149.708 27.8652C150.119 28.125 150.508 28.3632 150.572 28.3632C150.637 28.3632 150.659 27.0641 150.616 25.4619L150.551 22.5606L149.103 22.0843C147.224 21.4564 142.968 21.2832 140.851 21.7595Z" fill="#54340E"/>
<path d="M166.559 21.6729C164.442 21.976 162.778 23.2101 161.72 25.267L161.18 26.3063L161.158 24.0762V21.8461L158.199 21.9111L155.217 21.976L155.153 34.6853L155.109 47.4163H158.112H161.137L161.201 39.5568L161.266 31.7191L161.871 30.42C162.822 28.4064 163.923 27.3888 165.565 27.0857C166.667 26.8908 168.46 27.129 169.411 27.627L170.015 27.9518V25.0288C170.015 22.9287 169.929 22.0626 169.756 21.9327C169.303 21.6729 167.596 21.5213 166.559 21.6729Z" fill="#54340E"/>
<path d="M179.975 21.7596C175.287 22.8205 171.96 26.1115 170.772 30.8531C170.275 32.8234 170.253 36.7856 170.75 38.8424C171.766 43.1511 175.006 46.4204 179.348 47.5679C181.206 48.0442 184.987 48.0442 186.974 47.5246C190.841 46.5503 193.973 43.8222 195.313 40.3147C196.09 38.1713 196.436 35.8546 196.285 33.4513C196.069 29.5324 195.032 26.9992 192.828 24.7691C191.446 23.4051 190.452 22.7772 188.378 22.0411C186.78 21.4565 181.984 21.3049 179.975 21.7596ZM186.326 26.9342C187.773 27.5838 189.07 29.0994 189.588 30.6799C189.912 31.6759 189.998 32.5636 189.998 34.8586C189.977 37.3918 189.912 37.9547 189.48 39.0373C188.853 40.6395 187.946 41.6571 186.564 42.3716C185.613 42.8696 185.181 42.9345 183.518 42.9345C181.379 42.9345 180.212 42.5665 178.916 41.4839C176.885 39.7301 175.957 35.5515 176.821 31.8707C177.426 29.3592 178.549 27.8436 180.493 26.9342C182.027 26.1981 184.792 26.1981 186.326 26.9342Z" fill="#54340E"/>
<path d="M205.509 21.7594C202.96 22.4739 200.691 24.271 199.806 26.2629C199.093 27.8867 199.093 30.8313 199.827 32.3685C200.713 34.1872 201.707 34.9667 205.53 36.807C207.453 37.7381 209.203 38.7124 209.419 38.9505C209.981 39.5784 210.132 41.2023 209.678 41.8951C208.447 43.7788 203.867 43.5839 200.432 41.4837L199.179 40.7259V43.6489V46.5501L199.957 46.8749C202.355 47.8709 206.978 48.1956 209.505 47.5461C212.292 46.8316 214.344 45.316 215.381 43.1942C215.813 42.2848 215.9 41.7868 215.9 40.0547C215.9 38.3659 215.835 37.8463 215.446 37.1102C214.366 35.0533 212.983 34.014 209.095 32.2603C206.243 31.0045 205.466 30.3333 205.293 29.0342C204.882 26.068 209.354 25.202 213.718 27.4104L214.755 27.9517L214.69 25.1803L214.625 22.4306L213.329 22.0192C211.558 21.4563 207.086 21.3047 205.509 21.7594Z" fill="#54340E"/>
<path d="M228.019 21.846C224.973 22.6038 222.316 24.4442 220.761 26.8691C218.514 30.3983 218.017 36.1575 219.594 40.4228C221.539 45.6408 227.047 48.6287 233.291 47.8492C236.855 47.4162 238.799 46.5285 240.981 44.2984C243.617 41.6353 244.632 38.8856 244.632 34.4254C244.632 30.0735 243.617 27.2155 241.24 24.8123C239.642 23.2317 238.259 22.4523 235.991 21.8677C233.852 21.3047 230.18 21.3047 228.019 21.846ZM234.954 26.999C236.164 27.6486 237.287 28.9476 237.87 30.4416C238.281 31.5241 238.367 32.1304 238.367 34.5337C238.389 38.9722 237.482 41.0507 234.954 42.3281C233.809 42.8911 233.442 42.956 231.822 42.956C229.488 42.9344 228.041 42.3714 226.831 40.9858C225.427 39.3619 225.017 38.0195 224.995 34.8584C224.995 30.5282 225.967 28.4064 228.603 27.064C229.899 26.4144 230.05 26.3928 232.016 26.4577C233.571 26.5227 234.284 26.6526 234.954 26.999Z" fill="#54340E"/>
<path d="M120.76 34.642V47.4163H123.785H126.809L126.766 34.6853L126.701 21.976L123.741 21.9111L120.76 21.8461V34.642Z" fill="#54340E"/>
<path d="M0 45.2511V59.3245H14.0419H28.0838V45.2511V31.1778H14.0419H0V45.2511Z" fill="#54340E"/>
<path d="M30.9358 45.1862L31.0006 59.2162L44.9993 59.2812L58.9764 59.3245V45.2511V31.1778H44.9345H30.8926L30.9358 45.1862Z" fill="#54340E"/>
</svg>
