<svg width="235" height="64" viewBox="0 0 235 64" fill="none" xmlns="http://www.w3.org/2000/svg">
<g clip-path="url(#clip0_1311_60)">
<path d="M72.9224 30.3112C72.9224 40.6198 79.5907 47.8075 88.831 47.8075C98.0714 47.8075 104.74 40.6198 104.74 30.3112C104.74 20.0026 98.0714 12.8149 88.831 12.8149C79.5907 12.8149 72.9224 20.0026 72.9224 30.3112ZM98.643 30.3112C98.643 37.688 94.5944 42.464 88.831 42.464C83.0677 42.464 79.0191 37.688 79.0191 30.3112C79.0191 22.9344 83.0677 18.1584 88.831 18.1584C94.5944 18.1584 98.643 22.9344 98.643 30.3112Z" fill="#54340E"/>
<path d="M121.909 47.8074C128.911 47.8074 132.912 41.9437 132.912 34.8979C132.912 27.8521 128.911 21.9885 121.909 21.9885C118.67 21.9885 116.288 23.2653 114.717 25.1095V22.4614H109.001V55.7989H114.717V44.6864C116.288 46.5306 118.67 47.8074 121.909 47.8074ZM114.574 34.1886C114.574 29.5072 117.241 26.9537 120.766 26.9537C124.91 26.9537 127.148 30.1692 127.148 34.8979C127.148 39.6267 124.91 42.8422 120.766 42.8422C117.241 42.8422 114.574 40.2414 114.574 35.6545V34.1886Z" fill="#54340E"/>
<path d="M148.38 47.8074C153.381 47.8074 157.334 45.2066 159.097 40.8561L154.191 39.0119C153.429 41.5654 151.19 42.9841 148.38 42.9841C144.712 42.9841 142.14 40.3833 141.711 36.1274H159.24V34.2359C159.24 27.4266 155.381 21.9885 148.142 21.9885C140.902 21.9885 136.234 27.6157 136.234 34.8979C136.234 42.5585 141.235 47.8074 148.38 47.8074ZM148.094 26.7645C151.714 26.7645 153.429 29.1289 153.476 31.8716H141.997C142.855 28.5142 145.141 26.7645 148.094 26.7645Z" fill="#54340E"/>
<path d="M163.528 47.2872H169.244V32.7227C169.244 29.1762 171.863 27.2847 174.435 27.2847C177.579 27.2847 178.817 29.5072 178.817 32.5809V47.2872H184.533V30.9258C184.533 25.5824 181.389 21.9885 176.15 21.9885C172.911 21.9885 170.672 23.4544 169.244 25.1095V22.4614H163.528V47.2872Z" fill="#54340E"/>
<path d="M201.273 13.335L188.318 47.2872H194.367L197.272 39.5321H212.038L214.991 47.2872H221.135L208.18 13.335H201.273ZM204.608 20.0498L210.037 34.2359H199.273L204.608 20.0498Z" fill="#54340E"/>
<path d="M230.948 13.4336H224.851V47.3858H230.948V13.4336Z" fill="#54340E"/>
<path d="M58.9551 25.8051C60.3959 21.5118 59.8998 16.8087 57.5957 12.9036C54.1305 6.91384 47.1645 3.83229 40.3613 5.28243C37.3347 1.89745 32.9864 -0.0275359 28.4278 4.8298e-05C21.4737 -0.0157141 15.3035 4.42929 13.1641 10.9983C8.69675 11.9066 4.84064 14.6827 2.58414 18.6174C-0.9068 24.5914 -0.11097 32.1219 4.55287 37.2447C3.11204 41.538 3.6082 46.2411 5.91233 50.1462C9.37747 56.1359 16.3435 59.2175 23.1467 57.7673C26.1713 61.1523 30.5215 63.0773 35.0802 63.0477C42.0383 63.0655 48.2104 58.6165 50.3498 52.0416C54.8172 51.1333 58.6733 48.3572 60.9298 44.4225C64.4168 38.4485 63.619 30.9239 58.9571 25.8011L58.9551 25.8051ZM35.0842 58.9278C32.2998 58.9318 29.6027 57.9644 27.4652 56.1931C27.5625 56.1418 27.7312 56.0492 27.8403 55.9822L40.4863 48.7315C41.1333 48.367 41.5302 47.6833 41.5262 46.9445V29.2452L46.8708 32.3091C46.9284 32.3366 46.9661 32.3918 46.974 32.4549V47.1119C46.9661 53.6297 41.6493 58.914 35.0842 58.9278ZM9.51441 48.0853C8.11922 45.6933 7.61712 42.8896 8.09541 40.1686C8.18869 40.2238 8.35341 40.3242 8.4705 40.3912L21.1165 47.6419C21.7575 48.0143 22.5513 48.0143 23.1944 47.6419L38.6327 38.7914V44.919C38.6366 44.982 38.6069 45.0431 38.5573 45.0825L25.7743 52.4101C20.0805 55.665 12.8089 53.7302 9.51639 48.0853H9.51441ZM6.18621 20.6803C7.57544 18.2845 9.76844 16.4521 12.3802 15.5004C12.3802 15.6088 12.3742 15.7999 12.3742 15.9339V30.4373C12.3703 31.1742 12.7672 31.8579 13.4122 32.2224L28.8505 41.071L23.5059 44.1348C23.4524 44.1703 23.3849 44.1762 23.3253 44.1506L10.5405 36.8171C4.8585 33.5503 2.90961 26.3331 6.18423 20.6823L6.18621 20.6803ZM50.0978 30.8254L34.6595 21.9748L40.004 18.913C40.0576 18.8775 40.1251 18.8716 40.1846 18.8972L52.9695 26.2248C58.6614 29.4896 60.6123 36.7186 57.3238 42.3694C55.9325 44.7614 53.7415 46.5937 51.1318 47.5474V32.6105C51.1377 31.8736 50.7428 31.1919 50.0998 30.8254H50.0978ZM55.4165 22.8772C55.3233 22.8201 55.1585 22.7216 55.0415 22.6546L42.3955 15.4039C41.7545 15.0315 40.9606 15.0315 40.3176 15.4039L24.8793 24.2545V18.1268C24.8753 18.0638 24.9051 18.0027 24.9547 17.9633L37.7376 10.6416C43.4315 7.3808 50.711 9.32155 53.9936 14.9763C55.3808 17.3643 55.8829 20.1602 55.4126 22.8772H55.4165ZM21.9738 33.7986L16.6273 30.7348C16.5697 30.7072 16.532 30.652 16.5241 30.589V15.9319C16.528 9.40627 21.8607 4.11798 28.4337 4.12192C31.2142 4.12192 33.9053 5.09131 36.0427 6.8567C35.9455 6.90793 35.7788 7.00053 35.6677 7.06752L23.0217 14.3182C22.3747 14.6827 21.9778 15.3645 21.9818 16.1033L21.9738 33.7947V33.7986ZM24.8773 27.5843L31.754 23.6417L38.6307 27.5823V35.4655L31.754 39.4061L24.8773 35.4655V27.5843Z" fill="#54340E"/>
</g>
<defs>
<clipPath id="clip0_1311_60">
<rect width="234.184" height="63.0497" fill="white"/>
</clipPath>
</defs>
</svg>
