<svg width="235" height="64" viewBox="0 0 235 64" fill="none" xmlns="http://www.w3.org/2000/svg">
<g clip-path="url(#clip0_1815_211)">
<path d="M72.9219 30.3112C72.9219 40.6198 79.5902 47.8075 88.8305 47.8075C98.0709 47.8075 104.739 40.6198 104.739 30.3112C104.739 20.0026 98.0709 12.8149 88.8305 12.8149C79.5902 12.8149 72.9219 20.0026 72.9219 30.3112ZM98.6425 30.3112C98.6425 37.688 94.5939 42.464 88.8305 42.464C83.0672 42.464 79.0186 37.688 79.0186 30.3112C79.0186 22.9344 83.0672 18.1584 88.8305 18.1584C94.5939 18.1584 98.6425 22.9344 98.6425 30.3112Z" fill="#54340E"/>
<path d="M121.909 47.8076C128.911 47.8076 132.912 41.944 132.912 34.8982C132.912 27.8524 128.911 21.9888 121.909 21.9888C118.67 21.9888 116.288 23.2655 114.717 25.1097V22.4616H109.001V55.7992H114.717V44.6866C116.288 46.5309 118.67 47.8076 121.909 47.8076ZM114.574 34.1889C114.574 29.5074 117.241 26.9539 120.766 26.9539C124.91 26.9539 127.148 30.1695 127.148 34.8982C127.148 39.6269 124.91 42.8424 120.766 42.8424C117.241 42.8424 114.574 40.2416 114.574 35.6548V34.1889Z" fill="#54340E"/>
<path d="M148.38 47.8076C153.381 47.8076 157.335 45.2068 159.097 40.8564L154.191 39.0122C153.429 41.5657 151.19 42.9843 148.38 42.9843C144.713 42.9843 142.141 40.3835 141.712 36.1277H159.24V34.2362C159.24 27.4268 155.382 21.9888 148.142 21.9888C140.902 21.9888 136.234 27.616 136.234 34.8982C136.234 42.5587 141.236 47.8076 148.38 47.8076ZM148.094 26.7648C151.714 26.7648 153.429 29.1291 153.477 31.8718H141.998C142.855 28.5144 145.141 26.7648 148.094 26.7648Z" fill="#54340E"/>
<path d="M163.528 47.2874H169.244V32.723C169.244 29.1764 171.864 27.2849 174.436 27.2849C177.579 27.2849 178.818 29.5074 178.818 32.5811V47.2874H184.533V30.9261C184.533 25.5826 181.39 21.9888 176.15 21.9888C172.912 21.9888 170.673 23.4547 169.244 25.1097V22.4616H163.528V47.2874Z" fill="#54340E"/>
<path d="M201.273 13.335L188.317 47.2872H194.366L197.272 39.5321H212.037L214.991 47.2872H221.135L208.179 13.335H201.273ZM204.607 20.0498L210.037 34.2359H199.272L204.607 20.0498Z" fill="#54340E"/>
<path d="M230.947 13.4336H224.851V47.3858H230.947V13.4336Z" fill="#54340E"/>
<path d="M58.9551 25.8048C60.3959 21.5116 59.8998 16.8084 57.5957 12.9033C54.1305 6.91359 47.1645 3.83204 40.3613 5.28218C37.3347 1.8972 32.9864 -0.0277801 28.4278 -0.000195843C21.4737 -0.0159583 15.3035 4.42904 13.1641 10.998C8.69675 11.9063 4.84064 14.6825 2.58414 18.6172C-0.9068 24.5911 -0.11097 32.1216 4.55287 37.2444C3.11204 41.5377 3.6082 46.2408 5.91233 50.146C9.37747 56.1357 16.3435 59.2172 23.1467 57.7671C26.1713 61.1521 30.5215 63.077 35.0802 63.0475C42.0383 63.0652 48.2104 58.6163 50.3498 52.0414C54.8172 51.1331 58.6733 48.3569 60.9298 44.4222C64.4168 38.4483 63.619 30.9237 58.9571 25.8009L58.9551 25.8048ZM35.0842 58.9276C32.2998 58.9315 29.6027 57.9641 27.4652 56.1928C27.5625 56.1416 27.7312 56.049 27.8403 55.982L40.4863 48.7313C41.1333 48.3668 41.5302 47.6831 41.5262 46.9442V29.245L46.8708 32.3088C46.9284 32.3364 46.9661 32.3916 46.974 32.4546V47.1117C46.9661 53.6295 41.6493 58.9138 35.0842 58.9276ZM9.51441 48.085C8.11922 45.6931 7.61712 42.8893 8.09541 40.1683C8.18869 40.2235 8.35341 40.324 8.4705 40.391L21.1165 47.6417C21.7575 48.0141 22.5513 48.0141 23.1944 47.6417L38.6327 38.7911V44.9187C38.6366 44.9818 38.6069 45.0429 38.5573 45.0823L25.7743 52.4098C20.0805 55.6648 12.8089 53.7299 9.51639 48.085H9.51441ZM6.18621 20.6801C7.57544 18.2842 9.76844 16.4518 12.3802 15.5002C12.3802 15.6085 12.3742 15.7997 12.3742 15.9336V30.437C12.3703 31.1739 12.7672 31.8576 13.4122 32.2221L28.8505 41.0707L23.5059 44.1346C23.4524 44.17 23.3849 44.1759 23.3253 44.1503L10.5405 36.8169C4.8585 33.5501 2.90961 26.3329 6.18423 20.6821L6.18621 20.6801ZM50.0978 30.8252L34.6595 21.9746L40.004 18.9127C40.0576 18.8773 40.1251 18.8714 40.1846 18.897L52.9695 26.2245C58.6614 29.4893 60.6123 36.7183 57.3238 42.3692C55.9325 44.7611 53.7415 46.5935 51.1318 47.5471V32.6103C51.1377 31.8734 50.7428 31.1917 50.0998 30.8252H50.0978ZM55.4165 22.877C55.3233 22.8198 55.1585 22.7213 55.0415 22.6543L42.3955 15.4036C41.7545 15.0312 40.9606 15.0312 40.3176 15.4036L24.8793 24.2542V18.1266C24.8753 18.0635 24.9051 18.0025 24.9547 17.963L37.7376 10.6414C43.4315 7.38055 50.711 9.3213 53.9936 14.9761C55.3808 17.3641 55.8829 20.1599 55.4126 22.877H55.4165ZM21.9738 33.7984L16.6273 30.7345C16.5697 30.707 16.532 30.6518 16.5241 30.5887V15.9317C16.528 9.40603 21.8607 4.11774 28.4337 4.12168C31.2142 4.12168 33.9053 5.09106 36.0427 6.85645C35.9455 6.90768 35.7788 7.00029 35.6677 7.06728L23.0217 14.318C22.3747 14.6825 21.9778 15.3642 21.9818 16.1031L21.9738 33.7944V33.7984ZM24.8773 27.584L31.754 23.6415L38.6307 27.5821V35.4652L31.754 39.4058L24.8773 35.4652V27.584Z" fill="#54340E"/>
</g>
<defs>
<clipPath id="clip0_1815_211">
<rect width="234.184" height="63.0497" fill="white"/>
</clipPath>
</defs>
</svg>
