<svg width="972" height="148" viewBox="0 0 972 148" fill="none" xmlns="http://www.w3.org/2000/svg">
<path d="M136.117 71.6057C139.41 71.6057 142.154 74.5413 142.154 77.8438C142.154 80.9629 139.776 83.715 136.665 83.8985C131.36 84.4489 130.811 86.1001 130.811 91.7878V104.631C130.811 110.502 130.994 124.079 131.177 134.904C131.177 138.757 128.067 141.876 124.408 141.876C122.029 141.876 119.834 140.959 118.553 139.124L113.613 132.152C112.333 130.501 110.503 129.584 108.491 129.584C107.21 129.584 105.929 129.95 104.832 130.684C89.2807 141.142 75.0105 142.61 62.2038 142.61C23.2349 142.61 0 112.887 0 75.4586C0 32.7092 29.0894 3.9037 72.4491 3.9037C82.1456 3.9037 99.892 5.3715 108.674 8.85751C108.491 5.18803 110.503 2.06896 114.345 2.06896C116.907 2.06896 119.285 3.9037 119.834 6.65581L131.909 60.2303C132.458 62.9824 131.177 65.7345 128.798 67.0188C127.884 67.5693 126.969 67.7527 125.871 67.7527C123.676 67.7527 121.48 66.4684 120.383 64.2667C106.295 36.3786 93.4887 16.9304 73.7298 16.9304C66.4117 16.9304 45.1892 16.9304 45.1892 75.4586C45.1892 88.6688 45.5551 129.217 66.0458 129.217C74.8275 129.217 83.4263 120.96 88.549 110.502V93.4391C88.549 86.2836 83.9751 84.2654 77.5718 83.8985C74.4616 83.715 71.9003 81.1463 71.9003 77.8438C71.9003 74.3578 74.6446 71.6057 77.9377 71.6057C88.0001 71.7892 97.8795 72.3396 107.942 72.3396C117.272 72.3396 126.786 71.7892 136.117 71.6057Z" fill="#54340E"/>
<path d="M199.437 129.4C202.547 129.767 204.925 132.336 204.925 135.455C204.925 138.941 202.181 141.693 198.705 141.693C189.74 141.693 180.959 140.959 171.811 140.959C162.663 140.959 153.333 141.693 144.185 141.693C140.709 141.693 137.965 138.941 137.965 135.455C137.965 132.336 140.343 129.767 143.636 129.4C147.112 129.033 149.308 127.198 149.308 121.511V25.1867C149.308 20.9668 147.112 17.6643 143.636 17.4808C140.343 17.1138 137.965 14.5452 137.965 11.2427C137.965 7.94014 140.709 5.18803 144.185 5.18803C153.15 5.18803 162.114 5.92192 171.079 5.92192C180.227 5.92192 189.557 5.18803 198.705 5.18803C202.181 5.18803 204.925 7.94014 204.925 11.2427C204.925 14.5452 202.547 17.1138 199.437 17.4808C195.778 17.6643 193.582 19.6825 193.582 25.1867V121.511C193.582 125.914 195.778 129.033 199.437 129.4Z" fill="#54340E"/>
<path d="M332.675 5.00455C335.968 5.00455 338.529 7.75667 338.529 11.0592C338.529 14.3617 335.968 16.9304 332.858 17.1138C327.003 17.6643 320.6 23.9024 309.989 50.1392L273.581 138.757C272.849 140.592 271.02 141.876 269.007 141.876H261.689C259.494 141.876 257.664 140.592 256.932 138.757L212.109 30.324C208.267 21.1503 206.437 17.4808 202.23 17.1138C199.119 16.9304 196.741 14.1783 196.741 11.0592C196.741 7.75667 199.485 5.00455 202.961 5.00455C212.841 5.00455 222.537 5.73844 232.417 5.73844C243.394 5.73844 254.371 5.00455 265.348 5.00455C268.824 5.00455 271.569 7.75667 271.569 11.0592C271.569 14.3617 268.824 17.1138 265.531 17.1138C257.115 17.4808 256.932 24.0859 258.396 27.5719L281.631 84.8158L295.169 51.607C300.292 38.9473 305.232 17.8477 285.29 17.1138C281.997 17.1138 279.253 14.3617 279.253 11.0592C279.253 7.75667 281.997 5.00455 285.473 5.00455C294.438 5.00455 303.402 5.73844 312.55 5.73844C319.136 5.73844 325.905 5.00455 332.675 5.00455Z" fill="#54340E"/>
<path d="M452.35 90.8705C455.46 91.6044 457.29 94.9069 456.375 97.8425L441.739 143.895C441.19 146.096 439.177 147.564 436.799 147.564C433.506 147.564 430.945 144.445 431.676 141.142L431.859 140.959H335.626C332.333 140.959 329.589 138.207 329.589 134.904C329.589 131.785 331.967 129.033 335.077 128.666C340.566 128.116 340.932 126.648 340.932 120.777C340.932 120.777 340.932 41.6994 340.932 25.9206C340.932 19.866 340.566 18.5816 335.077 18.0312C331.967 17.6643 329.589 14.9122 329.589 11.7931C329.589 8.49055 332.333 5.73844 335.626 5.73844H428.932C429.115 2.98633 430.945 0.601167 433.689 0.0507515C436.433 -0.316203 439.36 1.33507 440.092 4.08717L453.448 48.121C454.362 50.8731 453.082 53.9922 450.337 55.2765C449.423 55.6434 448.508 55.8269 447.776 55.8269C445.946 55.8269 444.117 55.093 443.019 53.4417C436.25 44.268 429.481 33.9935 420.882 27.2049C414.479 22.0677 407.161 18.7651 398.013 18.7651H388.5C385.389 18.7651 385.023 19.866 385.023 22.985V67.5693C397.647 67.5693 405.88 60.0468 406.978 47.754C407.161 44.635 409.722 42.2498 413.198 42.2498C417.223 42.2498 419.236 44.635 419.236 47.3871C419.236 47.5706 418.504 69.2205 418.504 74.1743C418.504 79.3116 419.236 95.0904 419.236 100.411C419.236 104.264 416.674 106.099 413.015 106.099C408.624 106.099 407.161 103.163 406.978 100.411C406.246 87.7514 398.013 80.7794 385.023 80.7794V123.712C385.023 126.831 385.389 127.749 388.5 127.749H401.306C418.87 127.749 437.165 105.915 446.495 93.0722C447.593 91.6044 449.24 90.687 451.069 90.687C451.435 90.687 451.984 90.687 452.35 90.8705Z" fill="#54340E"/>
<path d="M587.533 86.4671C590.643 87.3845 592.289 90.687 591.192 93.6226C582.227 120.41 558.26 140.592 528.439 140.592C487.823 140.592 460.015 111.053 460.015 70.6883C460.015 29.5901 488.738 1.88548 531.366 1.88548C541.246 1.88548 558.809 3.35327 567.591 6.83928V6.28887C567.408 2.98634 569.969 0.0507515 573.262 0.0507515C576.007 0.0507515 578.202 1.88549 578.751 4.63759L590.826 58.212C591.375 60.9642 590.094 63.7163 587.716 65.0006C586.801 65.551 585.886 65.7345 584.788 65.7345C582.593 65.7345 580.397 64.4502 579.3 62.2485C565.395 34.3604 552.406 14.9122 532.647 14.9122C515.632 14.9122 504.289 32.7091 504.289 59.3129C504.289 91.4209 520.938 111.236 548.015 111.236C563.017 111.236 574.543 102.796 580.763 89.4027C581.678 87.3845 583.508 86.1001 585.703 86.1001C586.252 86.1001 586.984 86.2836 587.533 86.4671Z" fill="#54340E"/>
<path d="M639.437 82.6141L629.008 58.212L618.397 82.6141H639.437ZM710.239 127.565C713.532 127.749 716.094 130.317 716.094 133.62C716.094 136.922 713.35 139.858 710.056 139.858C700.726 139.858 691.395 139.124 682.065 139.124C670.539 139.124 659.013 139.858 647.487 139.858C644.011 139.858 641.266 136.922 641.266 133.436C641.266 130.317 643.462 127.565 646.389 127.015C651.146 126.098 657.915 125.364 654.439 117.291L645.291 95.8242H613.092C611.994 98.3929 611.262 101.145 610.713 103.53C607.42 115.823 609.25 127.198 624.069 127.565C627.545 127.749 630.289 130.868 629.923 134.537C629.557 137.656 626.813 139.858 623.703 139.858C614.189 139.858 604.493 139.124 594.979 139.124C588.576 139.124 582.173 139.858 575.769 139.858C572.11 139.858 569.366 135.271 571.195 131.235C572.293 129.033 574.489 127.749 576.684 127.565C582.173 127.015 588.21 120.593 599.37 94.54L637.424 6.10539C638.156 4.08718 640.169 2.98632 642.181 2.98632H649.499C651.512 2.98632 653.341 4.08718 654.073 6.10539L702.006 117.474C705.848 126.648 707.861 127.565 710.239 127.565Z" fill="#54340E"/>
<path d="M761.818 20.9668V67.3858H768.038C782.125 67.3858 783.589 49.7722 783.589 42.0663C783.589 34.5439 782.125 16.9304 768.038 16.9304H766.391C762.915 16.9304 761.818 17.8477 761.818 20.9668ZM953.918 99.6772C961.053 99.6772 967.822 104.448 967.822 113.438C967.822 135.088 913.668 146.28 882.383 146.28C820.911 146.28 794.932 125.18 781.393 101.879L768.404 80.5959H761.818V117.291C761.818 124.446 766.391 126.648 774.441 127.382C777.734 127.565 780.113 130.317 780.113 133.436C780.113 136.922 777.369 139.675 773.893 139.675C762.732 139.675 751.389 138.941 740.046 138.941C730.899 138.941 721.568 139.675 712.42 139.675C708.944 139.675 706.2 136.922 706.2 133.436C706.2 130.317 708.578 127.565 711.872 127.382C715.348 127.015 717.543 124.997 717.543 119.492V23.9024C717.543 18.0312 717.177 16.5634 711.689 16.013C708.578 15.8295 706.2 13.0774 706.2 9.77487C706.2 6.47233 708.944 3.72022 712.237 3.72022H771.514C796.762 3.72022 828.778 11.6096 828.778 42.9837C828.778 56.5608 823.473 67.5693 810.117 73.9908L812.13 77.4768C826.766 106.649 841.951 137.106 882.932 137.106C922.45 137.106 930.134 99.6772 953.918 99.6772Z" fill="#54340E"/>
<path d="M887.387 20.5711C879.901 22.3165 878.919 32.716 880.747 42.2719L898.748 38.0747C900.53 37.6591 901.777 37.3682 900.541 32.0063C899.016 25.3932 894.694 18.8673 887.387 20.5711ZM909.929 108.545C880.343 115.443 848.939 102.236 841.684 70.7795C835.131 42.3612 853.121 16.1304 884.447 8.63766C906.903 3.40151 937.756 10.1448 943.02 36.2271C943.638 38.9081 941.816 41.5931 939.142 42.2164L883.359 55.2237L883.482 55.7599C886.409 68.4498 896.303 86.1071 916.977 81.2865C926.601 79.0425 934.686 70.9419 938.919 62.4212C939.659 60.742 941.276 59.6115 942.88 59.2375C943.771 59.0297 944.703 59.0007 945.677 59.1504C949.256 60.0109 951.259 62.1807 950.479 66.1294C946.951 85.033 931.137 103.599 909.929 108.545Z" fill="#54340E"/>
<path d="M956.549 82.3472H962.195V83.8882H960.172V90.5819H958.56V83.8882H956.549V82.3472Z" fill="#54340E"/>
<path d="M972 82.3472V90.5819H970.424V83.5118L968.507 90.5819H966.236L964.648 84.6764L964.342 83.4412H964.319L964.342 84.7117V90.5819H962.801V82.3472H965.695L967.142 87.9938L967.424 89.229H967.448L967.73 87.9938L969.212 82.3472H972Z" fill="#54340E"/>
</svg>
